<?xml version="1.0" standalone="no"?>
<!DOCTYPE svg PUBLIC "-//W3C//DTD SVG 20010904//EN"
 "http://www.w3.org/TR/2001/REC-SVG-20010904/DTD/svg10.dtd">
<svg version="1.0" xmlns="http://www.w3.org/2000/svg"
 width="2048.000000pt" height="1936.000000pt" viewBox="0 0 2048.000000 1936.000000"
 preserveAspectRatio="xMidYMid meet">

<g transform="translate(0.000000,1936.000000) scale(0.100000,-0.100000)"
fill="#000000" stroke="none">
<path d="M15205 9500 c-222 -11 -445 -27 -625 -45 -80 -8 -212 -19 -295 -25
-532 -38 -930 -88 -1319 -165 -122 -24 -260 -51 -308 -59 -47 -9 -133 -32
-190 -50 -56 -19 -128 -39 -158 -45 -110 -21 -205 -42 -210 -48 -3 -3 59 -3
137 1 164 7 465 -9 538 -29 28 -8 95 -24 150 -35 131 -29 279 -76 335 -108 25
-14 75 -47 111 -74 37 -26 69 -48 71 -48 3 0 38 -31 79 -70 40 -38 79 -70 87
-70 7 0 18 -13 25 -28 12 -30 40 -69 93 -131 38 -45 70 -100 83 -143 14 -47
65 -167 88 -208 40 -69 89 -328 103 -545 6 -99 12 -1139 15 -2740 6 -2498 7
-2584 26 -2720 35 -248 81 -430 135 -535 18 -36 46 -93 60 -128 15 -35 34 -69
43 -75 9 -7 23 -25 31 -42 8 -16 24 -43 36 -60 11 -16 31 -56 44 -88 17 -44
27 -57 44 -57 31 0 41 -11 51 -55 9 -34 17 -43 55 -62 51 -25 100 -71 100 -94
0 -25 63 -79 93 -79 22 0 27 -5 32 -34 5 -25 18 -42 50 -65 24 -17 50 -31 58
-31 22 0 97 -58 97 -75 0 -8 8 -15 18 -15 9 0 33 -9 52 -20 19 -11 57 -30 85
-42 27 -13 81 -40 120 -60 38 -20 104 -53 145 -73 41 -20 98 -47 125 -61 67
-32 177 -67 310 -98 61 -14 153 -37 205 -51 111 -30 395 -80 563 -100 198 -24
577 -38 819 -32 362 10 553 36 923 124 392 93 542 142 755 249 36 17 133 66
216 107 83 42 154 82 157 91 3 8 45 36 93 63 98 54 219 160 241 211 7 18 24
37 38 42 25 10 105 103 105 124 0 14 47 66 60 66 5 0 18 17 29 38 11 21 40 61
66 90 35 39 60 83 100 179 29 71 69 168 90 216 43 104 110 361 130 502 12 85
15 498 15 2720 l0 2621 -36 13 c-32 12 -130 92 -508 415 -70 60 -156 130 -191
155 -34 25 -109 82 -166 127 -299 232 -881 590 -1199 737 -267 123 -850 312
-1145 372 -180 36 -450 74 -705 100 -85 9 -168 18 -185 20 -71 12 -498 36
-700 39 -121 3 -296 1 -390 -4z"/>
<path d="M6463 7650 c-58 -12 -165 -47 -394 -128 -108 -38 -283 -95 -390 -127
-107 -31 -291 -92 -409 -135 -118 -43 -294 -103 -390 -133 -177 -56 -298 -99
-515 -182 -66 -25 -187 -70 -270 -99 -82 -30 -175 -63 -205 -75 -30 -12 -104
-40 -165 -63 -60 -22 -144 -53 -185 -68 -41 -16 -140 -56 -220 -90 -80 -34
-227 -95 -328 -135 -150 -61 -369 -155 -537 -230 -17 -8 -66 -28 -110 -45 -44
-17 -201 -92 -350 -165 -148 -73 -322 -158 -385 -188 -113 -55 -476 -242 -715
-367 -66 -35 -184 -105 -262 -154 -190 -122 -447 -265 -523 -292 l-35 -12 4
-1004 c2 -551 5 -1165 6 -1363 1 -331 3 -369 24 -470 46 -221 70 -321 91 -375
21 -55 44 -117 96 -260 29 -82 52 -119 72 -112 7 2 12 -5 12 -19 0 -13 21 -49
46 -81 31 -40 44 -65 41 -78 -3 -11 -1 -20 4 -20 5 0 9 7 9 15 0 28 18 15 33
-24 9 -21 22 -41 30 -44 8 -3 19 -26 26 -51 12 -47 40 -76 76 -76 22 0 75 -59
75 -84 0 -25 62 -76 93 -76 21 0 27 -5 28 -22 1 -13 2 -29 3 -37 0 -7 29 -24
62 -38 66 -26 144 -85 144 -109 0 -12 8 -15 35 -14 3 0 26 -11 50 -25 25 -14
51 -25 58 -25 7 0 57 -25 112 -56 55 -30 132 -69 170 -85 39 -16 83 -36 100
-45 70 -37 492 -159 685 -198 402 -81 540 -96 973 -103 469 -8 758 21 1194
118 470 105 552 133 873 297 191 98 294 160 415 248 89 66 368 350 420 429 21
33 51 74 66 90 60 68 159 258 195 375 19 63 51 165 70 227 74 241 69 1 69
3053 0 2423 -2 2735 -15 2736 -8 1 -34 -2 -57 -6z"/>
</g>
</svg>
